<?xml version="1.0" encoding="utf-8"?>
<!-- Generator: Adobe Illustrator 28.1.0, SVG Export Plug-In . SVG Version: 6.00 Build 0)  -->
<svg version="1.1" id="asvg257" xmlns="http://www.w3.org/2000/svg" xmlns:xlink="http://www.w3.org/1999/xlink" x="0px" y="0px"
	 viewBox="0 0 276 128" style="enable-background:new 0 0 276 128;" xml:space="preserve">
<style type="text/css">
	.st0{fill-rule:evenodd;clip-rule:evenodd;fill:#F68B1F;}
	.st1{fill-rule:evenodd;clip-rule:evenodd;fill:#A6193C;}
</style>
<path id="apath219" class="st0" d="M33.5,25.5h48.8c7.8,0,14.1,6.4,14.1,14.2v48.7c0,7.8-6.4,14.1-14.1,14.1H38.7v-6.4h43.2
	c4.6,0,8.1-3.5,8.1-8V40c0-4.6-3.5-8.1-8.1-8.1h-48c-4.6,0-8.1,3.5-8.1,8.1v28.5c-2.1,1.9-4.4,3.9-6.1,6.2c-0.1,0.1-0.2,0.3-0.3,0.3
	V39.7C19.3,31.9,25.7,25.5,33.5,25.5L33.5,25.5z"/>
<path id="apath221" class="st1" d="M30.6,36.8c14,0.6,27.1,12.5,27.3,26.9C58,48,72.6,37.2,85.1,36.7v17.8
	C76,54.8,64.9,54.4,57.8,64c-30,0-47.1,27.3-44.9,51.3h19.3C29.4,96,36.7,70.1,57.8,64c15.6,0,26.5,14.8,27.3,27.2H67.4
	c-0.3-9.8-0.6-20.8-9.6-27.2c-6.8-9.3-17.1-9.1-27.2-9.4V36.8z"/>
<path id="apath225" class="st1" d="M182.3,80.1c-0.3-0.1-0.8-0.2-1.2-0.2c-1.9,0-3.5,0.6-4.4,2.5c-0.3,0.6-0.5,1.5-0.6,2.1
	c-0.1,1.1-0.1,2.5,0.3,3.6c0.9,2.1,3.7,3.2,5.8,2.3L182.3,80.1L182.3,80.1z M185.5,66.9c1.1,0,2.1,0.1,3.2,0.3v27.6
	c-1.3,0.4-2.6,0.8-4,0.9c-1.5,0.2-3,0.3-4.5,0.3c-2.6,0-5.4-0.7-7.4-2.4c-2.8-2.4-3.7-6.6-3-10.1c0.3-1.4,0.7-2.7,1.4-3.9
	c0.7-1.1,1.7-2.1,2.8-2.9c1.2-0.8,2.5-1.4,3.9-1.7c0.8-0.1,1.5-0.2,2.3-0.2c0.8,0,1.5,0.1,2.2,0.2h0.1v-7.7
	C183.3,67.1,184.3,66.9,185.5,66.9L185.5,66.9z"/>
<path id="apath227" class="st1" d="M141.6,51.5l-0.2-0.1c-1.4-0.1-2.8-0.3-4.2,0.1c-1.4,0.3-2.4,1.2-2.4,2.8c0,1.2,0.6,2.2,1.7,2.5
	c1.6,0.6,3.4,0.3,5-0.1L141.6,51.5z M141.6,47.4c0-0.7-0.1-1.2-0.3-1.7c-0.2-0.4-0.4-0.7-0.7-1c-0.3-0.3-0.7-0.5-1.2-0.6
	c-0.5-0.1-1.1-0.2-1.8-0.2c-1.2,0-2.4,0.1-3.5,0.4c-0.3,0.1-0.7,0.2-1.1,0.3l-0.4,0.1l-0.2-0.3c-0.6-1-0.8-2.1-0.8-3.3v-0.4
	c0.1-0.1,0.2-0.1,0.3-0.1c1.5-0.4,3.1-0.8,4.6-0.8c1.4-0.1,3.3-0.1,5.1,0.4c1,0.3,1.9,0.8,2.6,1.5s1.2,1.5,1.6,2.5
	c0.3,1,0.6,2.1,0.6,3.5v12.6c-0.6,0.1-1.3,0.3-1.9,0.4c-1.2,0.2-2.5,0.5-3.7,0.6c-2.4,0.1-4.7,0.1-7-0.8c-0.8-0.3-1.7-1-2.3-1.7
	c-0.9-1.2-1.4-2.8-1.4-4.3c0-1,0.3-2.2,0.8-3c0.7-1.4,1.9-2.4,3.3-3c2-1,4.6-1,6.8-0.9c0.3,0,0.5,0,0.7,0.1h0.1v-0.2L141.6,47.4z"/>
<path id="apath229" class="st1" d="M203.8,82.8c-0.1-0.3-0.1-0.6-0.2-0.9c-0.4-1.2-1.5-2-2.8-2c-0.9,0-1.8,0.3-2.4,0.9
	c-0.6,0.6-0.8,1.3-1,2.1L203.8,82.8L203.8,82.8z M197.3,87.5c0.1,0.4,0.1,0.8,0.3,1.1c0.6,1,1.4,1.5,2.4,1.8
	c0.6,0.1,1.4,0.3,1.9,0.3c1.9,0,3.5-0.5,5.4-1c0.4,0.7,0.8,1.5,1,2.3c0.2,1,0.3,1.8,0.3,2.8c-2.3,0.9-4.7,1.3-7.1,1.3
	c-1.6,0-3.3-0.2-4.9-0.8c-3.3-1.2-5.3-4.2-5.8-7.6c-0.3-2-0.1-4.4,0.5-6.4c0.6-1.9,1.7-3.5,3.3-4.8c1.7-1.3,3.9-1.9,6-1.9
	c1.9,0,3.8,0.5,5.4,1.7c1.5,1.1,2.5,2.6,3.1,4.4c0.5,1.5,0.6,3,0.6,4.6c0,0.8-0.1,1.5-0.3,2.3H197.3z"/>
<path id="apath231" class="st1" d="M257.1,82.8c-0.1-0.3-0.1-0.6-0.2-0.9c-0.4-1.2-1.5-2-2.8-2c-0.9,0-1.8,0.3-2.4,0.9
	c-0.6,0.6-0.8,1.3-1,2.1L257.1,82.8L257.1,82.8z M250.7,87.5c0.1,0.4,0.1,0.8,0.3,1.1c0.6,1,1.4,1.5,2.4,1.8
	c0.6,0.1,1.4,0.3,1.9,0.3c1.9,0,3.5-0.5,5.4-1c0.4,0.7,0.8,1.5,1,2.3c0.2,1,0.3,1.8,0.3,2.8c-2.3,0.9-4.7,1.3-7.1,1.3
	c-1.6,0-3.3-0.2-4.9-0.8c-3.3-1.2-5.3-4.2-5.8-7.6c-0.3-2-0.1-4.4,0.5-6.4c0.6-1.9,1.7-3.5,3.3-4.8c1.7-1.3,3.9-1.9,6-1.9
	c1.9,0,3.8,0.5,5.4,1.7c1.5,1.1,2.5,2.6,3.1,4.4c0.5,1.5,0.6,3,0.6,4.6c0,0.8-0.1,1.5-0.3,2.3H250.7z"/>
<path id="apath233" class="st1" d="M142.3,90.9c0.6,0,1.2-0.1,1.6-0.3c1.7-0.9,1.8-3.5,1.8-5.1c0-0.9-0.1-1.7-0.2-2.5
	c-0.3-1.8-1.2-3-3.2-3c-1.9,0-2.8,1.2-3.1,3c-0.1,0.7-0.2,1.5-0.2,2.5c0,1.6,0.1,4.3,1.9,5.1C141.2,90.8,141.8,90.9,142.3,90.9
	L142.3,90.9z M142.3,96c-1.7,0-3.1-0.3-4.3-0.8c-1.2-0.6-2.2-1.2-3.1-2.2c-0.8-1-1.5-2.1-1.8-3.4c-0.5-1.3-0.6-2.6-0.6-4.1
	c0-2,0.3-4.2,1.4-6c0.6-1.1,1.4-2.1,2.4-2.9c1.7-1.3,3.8-1.8,6-1.8c2.1,0,4.3,0.5,6,1.8c1.5,1.2,2.7,2.8,3.2,4.7
	c0.4,1.3,0.6,2.8,0.6,4.2c0,1.4-0.1,2.8-0.6,4.1c-0.3,1.2-1,2.4-1.8,3.4c-0.9,1-1.9,1.7-3.1,2.2C145.2,95.7,143.7,96,142.3,96
	L142.3,96z"/>
<path id="apath235" class="st1" d="M118.5,43.5c0.6-0.1,1.1-0.4,1.5-0.7c0.8-0.8,1.2-1.9,1.2-3c0-0.6-0.1-1.2-0.3-1.7
	c-0.5-1-1.7-1.7-2.5-1.8c-1-0.2-1.9-0.3-2.8-0.3c-0.4,0-0.9,0.1-1.3,0.1H114v7.6C115.5,43.7,117.1,43.8,118.5,43.5z M114.1,56.7
	c0.8,0.1,1.6,0.1,2.4,0.1c0.6,0,1.9-0.1,2.5-0.2c1.3-0.3,2.5-0.8,3.3-2c0.3-0.6,0.4-1.4,0.4-2c0-1.7-0.8-3.3-2.5-3.9
	c-1-0.4-2.4-0.6-3.5-0.6h-2.6V56.7z M110.8,32.2c2.4-0.2,4.8-0.4,7.1-0.2c1.2,0.1,2.6,0.3,3.7,0.8c1.6,0.7,2.8,1.7,3.6,3.2
	c0.4,0.8,0.8,2.1,0.8,3.5c0,1.5-0.4,3.1-1.5,4.3c-0.5,0.6-0.9,1-1.5,1.4c-0.1,0.1-0.1,0.1-0.2,0.1c0.6,0.3,1.2,0.5,1.7,0.8
	c1.2,0.8,2,1.8,2.6,3.1c0.4,1,0.6,2.2,0.6,3.3c0,1.2-0.3,2.8-1,3.9c-0.7,1.2-1.5,1.9-2.6,2.7c-2.3,1.5-5.5,1.9-8.2,1.9
	c-2.4,0-4.6-0.3-6.9-0.6V32.5C109.7,32.3,110.2,32.2,110.8,32.2z"/>
<path id="apath237" class="st1" d="M153.3,40c0.7,0,1.3,0.1,2,0.2l0.1,0.3c0.1,0.4,0.2,0.9,0.2,1.6l0.1,0.2l0.1-0.1l0.7-0.7
	c0.6-0.6,1.8-1.2,2.6-1.5c0.7-0.3,1.6-0.3,2.4-0.3c2,0,4,0.6,5.4,2.1c0.6,0.7,1,1.6,1.3,2.6c0.3,1,0.4,2.1,0.4,3.5v12.7
	c-0.8,0.1-1.6,0.3-2.4,0.3s-1.6-0.1-2.4-0.3V48.9c0-1.3-0.1-3.9-1.6-4.4c-1-0.5-2.2-0.3-3.1,0.1c-2.3,1-3,3.5-3,5.8v10.2
	c-0.8,0.1-1.6,0.3-2.4,0.3c-0.8,0-1.7-0.1-2.5-0.3V40.2C151.8,40.2,152.5,40,153.3,40z"/>
<path id="apath239" class="st1" d="M187.7,57.9c0.2,0.7,0.2,1.5,0.3,2.1c-0.1,0.1-0.2,0.1-0.3,0.1c-1.7,0.7-3.5,1-5.3,1
	c-4.4,0-8.2-1.9-9.7-6.4c-0.4-1.2-0.6-2.7-0.6-4.3c0-2.1,0.4-4.2,1.5-6c0.9-1.7,2.5-3.2,4.3-3.9c0.6-0.3,1.3-0.5,2-0.6
	c1.7-0.3,3.5-0.3,5.3,0c1,0.1,1.9,0.4,2.7,0.8c0,0.6,0,1.3-0.2,1.9c-0.1,0.7-0.4,1.4-0.7,2.1c-0.8-0.3-1.6-0.5-2.4-0.6
	c-1.5-0.2-3.2-0.3-4.5,0.3c-1.4,0.6-2.1,1.9-2.6,3.3c-0.2,0.9-0.3,1.8-0.3,2.7c0,1.2,0.1,2.2,0.4,3c0.8,2.4,2.8,3.4,5.2,3.4
	c1.5,0,2.9-0.3,4.3-0.8C187.2,56.7,187.5,57.2,187.7,57.9L187.7,57.9z"/>
<path id="apath241" class="st1" d="M199.7,57c1.2,0,2.7-0.5,3.5-1.7c0.8-1.1,1.2-2.8,1.2-4.9c0-2.1-0.4-3.9-1.2-5
	c-0.8-1.1-1.9-1.6-3.5-1.6c-1.5,0-2.8,0.8-3.4,1.6c-1,1.5-1.1,3.3-1.1,5c0,1.7,0.1,3.5,1.1,4.9C197,56.5,198.3,57,199.7,57z
	 M199.7,61.1c-1.5,0-2.9-0.3-4.2-0.8c-1.2-0.5-2.2-1.3-3.1-2.3c-0.8-1-1.4-2.2-1.8-3.4c-0.4-1.3-0.6-2.8-0.6-4.1
	c0-1.4,0.1-2.8,0.6-4.2c0.3-1.2,1-2.5,1.8-3.4c0.9-1,1.8-1.8,3.1-2.4c1.3-0.6,2.8-0.8,4.2-0.8c1.5,0,2.9,0.3,4.2,0.8
	c2.4,1.1,4,3.2,4.9,5.8c0.4,1.4,0.6,2.8,0.6,4.2c0,0.8-0.1,1.5-0.1,2.2c-0.1,1.2-0.6,2.6-1.2,3.7c-0.6,1.1-1.4,2.1-2.4,2.8
	c-1.1,0.8-2.4,1.4-3.7,1.6C201.2,61,200.4,61.1,199.7,61.1z"/>
<path id="apath243" class="st1" d="M215.5,86.4c-2.1-1-2.9-2.8-2.9-5.1c0.1-3,1.9-5.3,4.9-6.2c1.5-0.4,3.3-0.5,4.9-0.3
	c1.6,0.1,3.3,0.6,4.9,1.2c0,0.9-0.1,1.7-0.4,2.6c-0.3,0.8-0.6,1.6-1,2.4c-1.1-0.4-2.5-0.9-3.5-1c-0.8-0.1-2.1-0.1-2.8,0.3
	c-0.3,0.2-0.4,0.4-0.4,0.8c0,0.6,0.3,0.8,0.8,1c0.3,0.1,0.5,0.2,0.8,0.3c1,0.3,2.1,0.6,3.2,1c0.9,0.3,1.9,0.9,2.6,1.7
	c0.5,0.5,0.8,1.1,1,1.7c0.3,0.8,0.3,1.6,0.3,2.4c0,0.5-0.1,1-0.1,1.5c-0.3,1-0.6,1.8-1.3,2.6c-1.9,2.2-4.8,3-7.6,3
	c-1.5,0-3.2-0.1-4.6-0.6l-1.9-0.6c0.1-0.8,0.2-1.7,0.4-2.6c0.2-0.8,0.6-1.8,1-2.6c0.9,0.3,1.8,0.6,2.8,0.9c1.4,0.3,3.3,0.3,4.2-0.1
	c0.6-0.3,0.9-0.6,0.9-1.2c0-1-0.8-1.2-1.7-1.4C218.5,87.4,216.9,87.1,215.5,86.4L215.5,86.4z"/>
<path id="apath245" class="st1" d="M236.6,75.2h3.7c0.1,0.8,0.3,1.7,0.3,2.5c0,0.9-0.1,1.7-0.3,2.6h-3.7v7.1c0,0.6,0,1.1,0.1,1.7
	c0.5,1.1,0.9,1.5,2.1,1.5c0.8,0,1.7-0.2,2.4-0.3c0.3,0.9,0.6,1.8,0.6,2.8c0.1,0.8,0,1.6-0.1,2.4l-0.3,0.1c-0.6,0.1-1.2,0.3-1.8,0.3
	c-2.4,0.3-5.5,0.1-7.5-1.7c-1.3-1.2-2-3-2-5.5l-0.1-19.4c1-0.2,2.1-0.3,3.1-0.3c1.1,0,2.2,0.1,3.3,0.3L236.6,75.2L236.6,75.2z"/>
<path id="apath247" class="st1" d="M159.6,75.2c0.3,0.6,0.4,1.4,0.6,2.1l0.3-0.3c0.8-0.8,1.6-1.5,2.6-1.8c1.3-0.4,2.5-0.4,3.9,0
	c0.1,0.8,0.2,1.5,0.2,2.3c0,1.2-0.1,2.3-0.4,3.4c-1-0.2-2.3-0.2-3.3-0.1c-0.8,0.1-1.4,0.6-1.8,1.2c-0.8,1.2-0.9,2.5-0.9,3.9v9.6
	c-1,0.2-2.1,0.3-3.2,0.3c-1.1,0-2.1-0.1-3.3-0.3V75.3C156.1,74.9,158.3,74.8,159.6,75.2L159.6,75.2z"/>
<path id="apath249" class="st1" d="M112,67.3c0.9,0,1.8,0.1,2.6,0.3l9.6,15.8V67.6c1-0.1,2.1-0.3,3.1-0.3c1,0,1.9,0.1,2.8,0.3v27.8
	c-0.9,0.2-1.8,0.3-2.8,0.3c-0.9,0-1.7-0.1-2.6-0.3l-9.7-15.7v15.7c-1,0.2-1.9,0.3-3,0.3c-1,0-1.9-0.1-2.9-0.3V67.7
	C110.1,67.5,111,67.3,112,67.3L112,67.3z"/>
<path id="apath251" class="st1" d="M253.7,57c1.2,0,2.7-0.5,3.5-1.7c0.8-1.1,1.2-2.8,1.2-4.9c0-2.1-0.4-3.9-1.2-5
	c-0.8-1.1-1.9-1.6-3.5-1.6c-1.5,0-2.8,0.8-3.4,1.6c-1,1.5-1.1,3.3-1.1,5c0,1.7,0.1,3.5,1.1,4.9C251,56.5,252.4,57,253.7,57z
	 M253.7,61.1c-1.5,0-2.9-0.3-4.2-0.8c-1.2-0.5-2.2-1.3-3.1-2.3c-0.8-1-1.4-2.2-1.8-3.4c-0.4-1.3-0.6-2.8-0.6-4.1
	c0-1.4,0.1-2.8,0.6-4.2c0.3-1.2,1-2.5,1.8-3.4c0.9-1,1.8-1.8,3.1-2.4c1.3-0.6,2.8-0.8,4.2-0.8c1.5,0,2.9,0.3,4.2,0.8
	c2.4,1.1,4,3.2,4.9,5.8c0.4,1.4,0.6,2.8,0.6,4.2c0,0.8-0.1,1.5-0.1,2.2c-0.1,1.2-0.6,2.6-1.2,3.7c-0.6,1.1-1.4,2.1-2.4,2.8
	c-1.1,0.8-2.4,1.4-3.7,1.6C255.2,61,254.5,61.1,253.7,61.1L253.7,61.1z"/>
<path id="apath253" class="st1" d="M235.5,44.3c-0.6-0.2-1.4-0.3-2.1-0.4c-1.6-0.1-3.1,0.1-4.4,1.1c-1,0.8-1.5,1.7-1.7,2.9
	c-0.3,0.9-0.3,1.9-0.3,2.8c0,1.6,0.3,3.6,1.6,4.7c1.1,1,2.7,1.4,4.2,1.4c0.2,0,1.8-0.1,2.8-0.3L235.5,44.3z M237.9,31.6
	c0.8,0,1.6,0.1,2.4,0.3V60c-2.2,0.7-3.7,0.9-5.6,1c-1.4,0.1-2.8,0.1-4.2-0.1c-1.9-0.3-3.9-0.9-5.4-2.2c-1-0.9-1.8-2-2.4-3.3
	c-0.6-1.5-0.8-3.1-0.8-4.7c0-1.5,0.2-3,0.8-4.5c0.5-1.3,1.2-2.5,2.1-3.5c0.9-1,2-1.7,3.3-2.3c1.4-0.6,2.8-0.8,4.2-0.8
	c0.3,0,2.1,0.1,3.3,0.3v-8.1C236.3,31.7,237.1,31.6,237.9,31.6L237.9,31.6z"/>
</svg>
