<svg xmlns="http://www.w3.org/2000/svg" xmlns:xlink="http://www.w3.org/1999/xlink" width="133.239" height="42.066" viewBox="0 0 133.239 42.066"><defs><clipPath id="clip-path"><rect id="Ret&#xE2;ngulo_3" data-name="Ret&#xE2;ngulo 3" width="133.239" height="42.066" transform="translate(0 0)" fill="none"></rect></clipPath></defs><g id="LOGO" transform="translate(0 0)"><g id="Grupo_1" data-name="Grupo 1" transform="translate(0 0)" clip-path="url(#clip-path)"><path id="Caminho_1" data-name="Caminho 1" d="M53.494,75.015a7.131,7.131,0,1,1-7.131-7.131,7.132,7.132,0,0,1,7.131,7.131" transform="translate(-23.163 -40.081)" fill="#fdfcf1" fill-rule="evenodd"></path><path id="Caminho_2" data-name="Caminho 2" d="M46.363,29.534a7.089,7.089,0,0,0-7.131,7.041v7.041h7.131a7.089,7.089,0,0,0,7.131-7.041V29.534Z" transform="translate(-23.164 -17.438)" fill="#fdfcf1" fill-rule="evenodd"></path><path id="Caminho_3" data-name="Caminho 3" d="M7.041,67.884A7.089,7.089,0,0,0,0,75.015v7.131H7.041a7.089,7.089,0,0,0,7.041-7.131V67.884Z" transform="translate(0 -40.081)" fill="#fdfcf1" fill-rule="evenodd"></path><rect id="Ret&#xE2;ngulo_2" data-name="Ret&#xE2;ngulo 2" width="14.082" height="14.082" transform="translate(0 12.096)" fill="#fdfcf1"></rect><path id="Caminho_4" data-name="Caminho 4" d="M99.779,29.093A14.29,14.29,0,0,0,85.516,43.408V59.244h7.86V43.408a6.4,6.4,0,1,1,12.806,0V59.244h7.86V43.408A14.29,14.29,0,0,0,99.779,29.093" transform="translate(-50.491 -17.177)" fill="#fdfcf1" fill-rule="evenodd"></path><path id="Caminho_5" data-name="Caminho 5" d="M188.349,0V13.515a15.124,15.124,0,1,0,8.136,14.368l.029.029V0Zm-7,34.839a7.906,7.906,0,1,1,7.922-7.906,7.91,7.91,0,0,1-7.922,7.906" transform="translate(-98.119 0)" fill="#fdfcf1" fill-rule="evenodd"></path><path id="Caminho_6" data-name="Caminho 6" d="M281.59,26.933h0V0h-8.165V13.515a15.123,15.123,0,1,0,8.136,14.368l.029.029Zm-15.166,7.906a7.906,7.906,0,1,1,7.922-7.906,7.91,7.91,0,0,1-7.922,7.906" transform="translate(-148.351 0)" fill="#fdfcf1" fill-rule="evenodd"></path></g></g></svg>